<svg width="50" height="50" viewBox="0 0 50 50" fill="none" xmlns="http://www.w3.org/2000/svg">
<g filter="url(#filter0_di_11_17)">
<path d="M1 8C1 3.58172 4.58172 0 9 0H41C45.4183 0 49 3.58172 49 8V40C49 44.4183 45.4183 48 41 48H9C4.58172 48 1 44.4183 1 40V8Z" fill="#1F8844"/>
<path d="M1.5 8C1.5 3.85787 4.85786 0.5 9 0.5H41C45.1421 0.5 48.5 3.85786 48.5 8V40C48.5 44.1421 45.1421 47.5 41 47.5H9C4.85787 47.5 1.5 44.1421 1.5 40V8Z" stroke="url(#paint0_linear_11_17)"/>
</g>
<g filter="url(#filter1_d_11_17)">
<mask id="path-3-outside-1_11_17" maskUnits="userSpaceOnUse" x="10" y="9" width="30" height="30" fill="black">
<rect fill="white" x="10" y="9" width="30" height="30"/>
<path fill-rule="evenodd" clip-rule="evenodd" d="M34.8 22.9234C34.8 22.305 35.0541 21.7474 35.4611 21.3546C35.6877 21.1359 35.8358 20.8241 35.7459 20.5224C35.6375 20.1584 35.5119 19.7992 35.3693 19.4463C34.7862 18.0025 33.9316 16.6906 32.8542 15.5856C31.7768 14.4805 30.4978 13.604 29.0901 13.0059C27.6824 12.4079 26.1737 12.1 24.65 12.1C23.1264 12.1 21.6176 12.4079 20.2099 13.0059C18.8023 13.604 17.5232 14.4805 16.4458 15.5856C15.3684 16.6906 14.5138 18.0025 13.9307 19.4463C13.5776 20.3207 13.3282 21.2332 13.1865 22.164C13.1246 22.5703 13.4489 22.9232 13.8599 22.9232H15.6965C16.0501 22.9232 16.3452 22.6587 16.4128 22.3116C16.5109 21.8081 16.6533 21.3116 16.8399 20.8282C17.5929 18.8775 19.0139 17.2757 20.8365 16.3233C22.659 15.3708 24.7578 15.1332 26.739 15.6549C28.7202 16.1767 30.4477 17.4219 31.5975 19.1571C32.6332 20.7203 33.1359 22.5843 33.038 24.4602C33.0195 24.8144 32.7166 25.0784 32.3618 25.0768L32.35 25.0768L22.5769 25.0768C21.9822 25.0768 21.5 24.5946 21.5 23.9998C21.5 23.405 21.9822 22.9229 22.5769 22.9229H30.037C30.4691 22.9229 30.8002 22.5337 30.6773 22.1195C30.4941 21.5016 30.2202 20.9106 29.8606 20.3678C28.9983 19.0664 27.7027 18.1324 26.2167 17.7411C24.7308 17.3499 23.1568 17.528 21.7899 18.2424C20.4229 18.9568 19.3571 20.1581 18.7924 21.6211C18.2277 23.0841 18.2028 24.7082 18.7224 26.1887C19.2421 27.6691 20.2706 28.9042 21.6149 29.6622C22.9593 30.4203 24.5271 30.6491 26.0243 30.3059C27.3492 30.0021 28.5382 29.2688 29.4192 28.2219C29.5608 28.0536 29.766 27.9486 29.986 27.9486H36.2C36.5866 27.9486 36.9 28.262 36.9 28.6486V30.0169C36.9 30.1216 36.8767 30.2252 36.8304 30.3191C35.7621 32.4853 34.1617 34.3318 32.1839 35.6745C30.0847 37.0996 27.6422 37.9015 25.1264 37.9916C22.6105 38.0817 20.1194 37.4565 17.9284 36.1851C16.2798 35.2284 14.8494 33.9339 13.7223 32.3895C13.6595 32.3034 13.5566 32.2571 13.45 32.2571C12.2902 32.2571 11.35 31.2927 11.35 30.1032C11.35 28.9136 12.2902 27.9493 13.45 27.9493C14.6098 27.9493 15.55 28.9136 15.55 30.1032C15.55 30.3045 15.5231 30.4993 15.4727 30.6842C15.4044 30.9346 15.4167 31.2109 15.576 31.416C16.4985 32.6033 17.6379 33.6036 18.9366 34.3573C20.799 35.438 22.9165 35.9694 25.0549 35.8928C27.1934 35.8162 29.2695 35.1346 31.0538 33.9233C32.1726 33.1638 33.1494 32.2145 33.9453 31.1218C34.2632 30.6852 33.933 30.1025 33.3929 30.1025H30.8739C30.6856 30.1025 30.5062 30.1794 30.3699 30.3094C29.2855 31.3435 27.9462 32.0723 26.4824 32.4079C24.4862 32.8656 22.3957 32.5604 20.6033 31.5498C18.8108 30.539 17.4395 28.8922 16.7466 26.9182C16.6051 26.5152 16.4939 26.1041 16.4129 25.6886C16.3453 25.3415 16.0502 25.0771 15.6966 25.0771H11.7C11.3134 25.0771 11 24.7637 11 24.3771V24.0002C11 24.0001 11 24.0001 11 24.0001C11 24 11 24 11 23.9999C11.0001 22.1615 11.3531 20.3411 12.0391 18.6426C12.725 16.944 13.7305 15.4007 14.998 14.1006C16.2655 12.8006 17.7703 11.7693 19.4264 11.0657C21.0825 10.3621 22.8575 10 24.65 10C26.4426 10 28.2175 10.3621 29.8736 11.0657C31.5297 11.7693 33.0345 12.8006 34.302 14.1006C35.5695 15.4007 36.575 16.944 37.261 18.6426C37.5439 19.3433 37.7702 20.0646 37.9385 20.7994C37.9808 20.9843 38.096 21.1423 38.2404 21.2653C38.7045 21.6603 39 22.2565 39 22.9234C39 24.113 38.0598 25.0773 36.9 25.0773C35.7402 25.0773 34.8 24.113 34.8 22.9234Z"/>
</mask>
<path fill-rule="evenodd" clip-rule="evenodd" d="M34.8 22.9234C34.8 22.305 35.0541 21.7474 35.4611 21.3546C35.6877 21.1359 35.8358 20.8241 35.7459 20.5224C35.6375 20.1584 35.5119 19.7992 35.3693 19.4463C34.7862 18.0025 33.9316 16.6906 32.8542 15.5856C31.7768 14.4805 30.4978 13.604 29.0901 13.0059C27.6824 12.4079 26.1737 12.1 24.65 12.1C23.1264 12.1 21.6176 12.4079 20.2099 13.0059C18.8023 13.604 17.5232 14.4805 16.4458 15.5856C15.3684 16.6906 14.5138 18.0025 13.9307 19.4463C13.5776 20.3207 13.3282 21.2332 13.1865 22.164C13.1246 22.5703 13.4489 22.9232 13.8599 22.9232H15.6965C16.0501 22.9232 16.3452 22.6587 16.4128 22.3116C16.5109 21.8081 16.6533 21.3116 16.8399 20.8282C17.5929 18.8775 19.0139 17.2757 20.8365 16.3233C22.659 15.3708 24.7578 15.1332 26.739 15.6549C28.7202 16.1767 30.4477 17.4219 31.5975 19.1571C32.6332 20.7203 33.1359 22.5843 33.038 24.4602C33.0195 24.8144 32.7166 25.0784 32.3618 25.0768L32.35 25.0768L22.5769 25.0768C21.9822 25.0768 21.5 24.5946 21.5 23.9998C21.5 23.405 21.9822 22.9229 22.5769 22.9229H30.037C30.4691 22.9229 30.8002 22.5337 30.6773 22.1195C30.4941 21.5016 30.2202 20.9106 29.8606 20.3678C28.9983 19.0664 27.7027 18.1324 26.2167 17.7411C24.7308 17.3499 23.1568 17.528 21.7899 18.2424C20.4229 18.9568 19.3571 20.1581 18.7924 21.6211C18.2277 23.0841 18.2028 24.7082 18.7224 26.1887C19.2421 27.6691 20.2706 28.9042 21.6149 29.6622C22.9593 30.4203 24.5271 30.6491 26.0243 30.3059C27.3492 30.0021 28.5382 29.2688 29.4192 28.2219C29.5608 28.0536 29.766 27.9486 29.986 27.9486H36.2C36.5866 27.9486 36.9 28.262 36.9 28.6486V30.0169C36.9 30.1216 36.8767 30.2252 36.8304 30.3191C35.7621 32.4853 34.1617 34.3318 32.1839 35.6745C30.0847 37.0996 27.6422 37.9015 25.1264 37.9916C22.6105 38.0817 20.1194 37.4565 17.9284 36.1851C16.2798 35.2284 14.8494 33.9339 13.7223 32.3895C13.6595 32.3034 13.5566 32.2571 13.45 32.2571C12.2902 32.2571 11.35 31.2927 11.35 30.1032C11.35 28.9136 12.2902 27.9493 13.45 27.9493C14.6098 27.9493 15.55 28.9136 15.55 30.1032C15.55 30.3045 15.5231 30.4993 15.4727 30.6842C15.4044 30.9346 15.4167 31.2109 15.576 31.416C16.4985 32.6033 17.6379 33.6036 18.9366 34.3573C20.799 35.438 22.9165 35.9694 25.0549 35.8928C27.1934 35.8162 29.2695 35.1346 31.0538 33.9233C32.1726 33.1638 33.1494 32.2145 33.9453 31.1218C34.2632 30.6852 33.933 30.1025 33.3929 30.1025H30.8739C30.6856 30.1025 30.5062 30.1794 30.3699 30.3094C29.2855 31.3435 27.9462 32.0723 26.4824 32.4079C24.4862 32.8656 22.3957 32.5604 20.6033 31.5498C18.8108 30.539 17.4395 28.8922 16.7466 26.9182C16.6051 26.5152 16.4939 26.1041 16.4129 25.6886C16.3453 25.3415 16.0502 25.0771 15.6966 25.0771H11.7C11.3134 25.0771 11 24.7637 11 24.3771V24.0002C11 24.0001 11 24.0001 11 24.0001C11 24 11 24 11 23.9999C11.0001 22.1615 11.3531 20.3411 12.0391 18.6426C12.725 16.944 13.7305 15.4007 14.998 14.1006C16.2655 12.8006 17.7703 11.7693 19.4264 11.0657C21.0825 10.3621 22.8575 10 24.65 10C26.4426 10 28.2175 10.3621 29.8736 11.0657C31.5297 11.7693 33.0345 12.8006 34.302 14.1006C35.5695 15.4007 36.575 16.944 37.261 18.6426C37.5439 19.3433 37.7702 20.0646 37.9385 20.7994C37.9808 20.9843 38.096 21.1423 38.2404 21.2653C38.7045 21.6603 39 22.2565 39 22.9234C39 24.113 38.0598 25.0773 36.9 25.0773C35.7402 25.0773 34.8 24.113 34.8 22.9234Z" fill="white"/>
<path d="M35.3693 19.4463L35.8329 19.2591L35.3693 19.4463ZM29.0901 13.0059L28.8946 13.4661V13.4661L29.0901 13.0059ZM20.2099 13.0059L20.4054 13.4661V13.4661L20.2099 13.0059ZM16.4458 15.5856L16.8038 15.9346L16.4458 15.5856ZM13.9307 19.4463L14.3943 19.6335L13.9307 19.4463ZM16.8399 20.8282L17.3063 21.0083L16.8399 20.8282ZM20.8365 16.3233L21.068 16.7664L21.0681 16.7664L20.8365 16.3233ZM26.739 15.6549L26.8663 15.1714L26.8663 15.1714L26.739 15.6549ZM31.5975 19.1571L31.1807 19.4333L31.5975 19.1571ZM32.35 25.0768L32.3523 24.5768H32.35V25.0768ZM22.5769 25.0768V24.5768V25.0768ZM29.8606 20.3678L30.2774 20.0917L30.2774 20.0916L29.8606 20.3678ZM26.2167 17.7411L26.3441 17.2576L26.344 17.2576L26.2167 17.7411ZM21.7899 18.2424L21.5583 17.7993L21.7899 18.2424ZM18.7924 21.6211L18.3259 21.441V21.441L18.7924 21.6211ZM18.7224 26.1887L19.1942 26.0231L18.7224 26.1887ZM21.6149 29.6622L21.8605 29.2267L21.8605 29.2267L21.6149 29.6622ZM26.0243 30.3059L26.136 30.7933L26.1361 30.7933L26.0243 30.3059ZM32.1839 35.6745L31.9031 35.2608L32.1839 35.6745ZM25.1264 37.9916L25.1443 38.4913L25.1264 37.9916ZM17.9284 36.1851L17.6775 36.6175H17.6775L17.9284 36.1851ZM18.9366 34.3573L18.6857 34.7897L18.9366 34.3573ZM25.0549 35.8928L25.037 35.3932H25.037L25.0549 35.8928ZM31.0538 33.9233L30.773 33.5096L31.0538 33.9233ZM26.4824 32.4079L26.5941 32.8953L26.5941 32.8953L26.4824 32.4079ZM20.6033 31.5498L20.3577 31.9853L20.3577 31.9853L20.6033 31.5498ZM16.7466 26.9182L17.2184 26.7526L17.2184 26.7526L16.7466 26.9182ZM12.0391 18.6426L11.5754 18.4554H11.5754L12.0391 18.6426ZM14.998 14.1006L15.356 14.4497L14.998 14.1006ZM19.4264 11.0657L19.6219 11.5259L19.4264 11.0657ZM29.8736 11.0657L29.6781 11.5259L29.8736 11.0657ZM34.302 14.1006L34.66 13.7516L34.302 14.1006ZM37.261 18.6426L37.7246 18.4554L37.261 18.6426ZM37.9385 20.7994L37.4511 20.911L37.9385 20.7994ZM38.2404 21.2653L37.9163 21.646L38.2404 21.2653ZM16.4129 25.6886L15.9222 25.7842L16.4129 25.6886ZM30.3699 30.3094L30.715 30.6712L30.3699 30.3094ZM13.7223 32.3895L13.3185 32.6843L13.7223 32.3895ZM36.8304 30.3191L37.2788 30.5402L36.8304 30.3191ZM15.576 31.416L15.9709 31.1092L15.576 31.416ZM29.4192 28.2219L29.0366 27.8999L29.4192 28.2219ZM33.9453 31.1218L34.3494 31.4161L33.9453 31.1218ZM30.6773 22.1195L31.1567 21.9773L30.6773 22.1195ZM33.038 24.4602L32.5387 24.4341L33.038 24.4602ZM32.3618 25.0768L32.3596 25.5768L32.3618 25.0768ZM16.4128 22.3116L15.922 22.216L16.4128 22.3116ZM35.4611 21.3546L35.8084 21.7143L35.4611 21.3546ZM35.7459 20.5224L36.2251 20.3796L35.7459 20.5224ZM35.1139 20.9948C34.6118 21.4794 34.3 22.1658 34.3 22.9234H35.3C35.3 22.4442 35.4964 22.0154 35.8084 21.7143L35.1139 20.9948ZM34.9057 19.6335C35.0423 19.9718 35.1628 20.3161 35.2668 20.6652L36.2251 20.3796C36.1122 20.0006 35.9814 19.6266 35.8329 19.2591L34.9057 19.6335ZM32.4962 15.9346C33.5278 16.9927 34.3467 18.2495 34.9057 19.6335L35.8329 19.2591C35.2257 17.7555 34.3354 16.3885 33.2122 15.2365L32.4962 15.9346ZM28.8946 13.4661C30.2407 14.038 31.4647 14.8766 32.4962 15.9346L33.2122 15.2365C32.089 14.0845 30.7548 13.1699 29.2856 12.5457L28.8946 13.4661ZM24.65 12.6C26.1062 12.6 27.5485 12.8942 28.8946 13.4661L29.2856 12.5457C27.8163 11.9215 26.2411 11.6 24.65 11.6V12.6ZM20.4054 13.4661C21.7515 12.8942 23.1938 12.6 24.65 12.6V11.6C23.0589 11.6 21.4837 11.9215 20.0144 12.5457L20.4054 13.4661ZM16.8038 15.9346C17.8354 14.8766 19.0593 14.038 20.4054 13.4661L20.0144 12.5457C18.5452 13.1699 17.211 14.0845 16.0878 15.2365L16.8038 15.9346ZM14.3943 19.6335C14.9533 18.2495 15.7722 16.9927 16.8038 15.9346L16.0878 15.2365C14.9646 16.3885 14.0743 17.7555 13.4671 19.2591L14.3943 19.6335ZM13.6808 22.2393C13.8167 21.3466 14.0558 20.4718 14.3943 19.6335L13.4671 19.2591C13.0993 20.1697 12.8397 21.1197 12.6922 22.0887L13.6808 22.2393ZM15.6965 22.4232H13.8599V23.4232H15.6965V22.4232ZM16.3734 20.6481C16.1762 21.1591 16.0257 21.6839 15.922 22.216L16.9036 22.4072C16.9961 21.9323 17.1304 21.464 17.3063 21.0083L16.3734 20.6481ZM20.6049 15.8802C18.6727 16.8899 17.1693 18.5863 16.3734 20.6481L17.3063 21.0083C18.0164 19.1688 19.3551 17.6616 21.068 16.7664L20.6049 15.8802ZM26.8663 15.1714C24.7641 14.6178 22.5374 14.8702 20.6049 15.8802L21.0681 16.7664C22.7806 15.8714 24.7514 15.6485 26.6117 16.1384L26.8663 15.1714ZM32.0143 18.881C30.798 17.0452 28.9683 15.725 26.8663 15.1714L26.6116 16.1384C28.4721 16.6284 30.0975 17.7986 31.1807 19.4333L32.0143 18.881ZM33.5373 24.4862C33.6407 22.5046 33.1098 20.5345 32.0143 18.881L31.1807 19.4333C32.1565 20.9062 32.6311 22.664 32.5387 24.4341L33.5373 24.4862ZM32.3477 25.5768L32.3596 25.5768L32.3641 24.5768L32.3523 24.5768L32.3477 25.5768ZM22.5769 25.5768L32.35 25.5768V24.5768L22.5769 24.5768V25.5768ZM21 23.9998C21 24.8707 21.706 25.5768 22.5769 25.5768V24.5768C22.2583 24.5768 22 24.3184 22 23.9998H21ZM22.5769 22.4229C21.706 22.4229 21 23.1289 21 23.9998H22C22 23.6812 22.2583 23.4229 22.5769 23.4229V22.4229ZM30.037 22.4229H22.5769V23.4229H30.037V22.4229ZM29.4438 20.644C29.7756 21.1448 30.0287 21.6906 30.198 22.2616L31.1567 21.9773C30.9596 21.3125 30.6648 20.6763 30.2774 20.0917L29.4438 20.644ZM26.0894 18.2246C27.4546 18.5841 28.6481 19.4431 29.4438 20.644L30.2774 20.0916C29.3485 18.6898 27.9507 17.6807 26.3441 17.2576L26.0894 18.2246ZM22.0214 18.6855C23.2784 18.0286 24.7245 17.8652 26.0894 18.2246L26.344 17.2576C24.7372 16.8345 23.0352 17.0274 21.5583 17.7993L22.0214 18.6855ZM19.2589 21.8012C19.7807 20.4494 20.7641 19.3426 22.0214 18.6855L21.5583 17.7993C20.0818 18.5709 18.9336 19.8668 18.3259 21.441L19.2589 21.8012ZM19.1942 26.0231C18.7139 24.6547 18.737 23.1532 19.2589 21.8012L18.3259 21.441C17.7184 23.015 17.6916 24.7617 18.2507 26.3543L19.1942 26.0231ZM21.8605 29.2267C20.6237 28.5293 19.6744 27.3912 19.1942 26.0231L18.2507 26.3543C18.8098 27.9471 19.9175 29.2791 21.3694 30.0977L21.8605 29.2267ZM25.9126 29.8186C24.5374 30.1338 23.097 29.9239 21.8605 29.2267L21.3693 30.0977C22.8216 30.9167 24.5168 31.1645 26.136 30.7933L25.9126 29.8186ZM29.0366 27.8999C28.2243 28.8653 27.1297 29.5394 25.9125 29.8186L26.1361 30.7933C27.5687 30.4647 28.8521 29.6723 29.8018 28.5438L29.0366 27.8999ZM36.2 27.4486H29.986V28.4486H36.2V27.4486ZM37.4 30.0169V28.6486H36.4V30.0169H37.4ZM32.4648 36.0882C34.5151 34.6962 36.1728 32.7829 37.2788 30.5402L36.382 30.0979C35.3514 32.1876 33.8083 33.9674 31.9031 35.2608L32.4648 36.0882ZM25.1443 38.4913C27.7549 38.3978 30.2884 37.5656 32.4648 36.0882L31.9031 35.2608C29.8811 36.6335 27.5295 37.4052 25.1085 37.4919L25.1443 38.4913ZM17.6775 36.6175C19.9494 37.9359 22.5336 38.5848 25.1443 38.4913L25.1085 37.4919C22.6874 37.5786 20.2894 36.9771 18.1794 35.7526L17.6775 36.6175ZM13.3185 32.6843C14.4858 34.2839 15.968 35.6256 17.6775 36.6175L18.1794 35.7526C16.5916 34.8312 15.213 33.5839 14.1262 32.0948L13.3185 32.6843ZM10.85 30.1032C10.85 31.5569 12.0022 32.7571 13.45 32.7571V31.7571C12.5782 31.7571 11.85 31.0286 11.85 30.1032H10.85ZM13.45 27.4493C12.0022 27.4493 10.85 28.6495 10.85 30.1032H11.85C11.85 29.1777 12.5782 28.4493 13.45 28.4493V27.4493ZM16.05 30.1032C16.05 28.6495 14.8978 27.4493 13.45 27.4493V28.4493C14.3218 28.4493 15.05 29.1777 15.05 30.1032H16.05ZM15.9551 30.8156C16.017 30.5883 16.05 30.3492 16.05 30.1032H15.05C15.05 30.2597 15.0291 30.4104 14.9903 30.5527L15.9551 30.8156ZM19.1876 33.9248C17.9452 33.2039 16.8545 32.2465 15.9709 31.1092L15.1812 31.7227C16.1426 32.9602 17.3306 34.0034 18.6857 34.7897L19.1876 33.9248ZM25.037 35.3932C22.9933 35.4664 20.969 34.9586 19.1876 33.9248L18.6857 34.7897C20.629 35.9174 22.8396 36.4725 25.0728 36.3925L25.037 35.3932ZM30.773 33.5096C29.0658 34.6685 27.0807 35.32 25.037 35.3932L25.0728 36.3925C27.306 36.3125 29.4732 35.6007 31.3347 34.337L30.773 33.5096ZM33.5411 30.8274C32.7787 31.8742 31.8435 32.7829 30.773 33.5096L31.3347 34.337C32.5018 33.5446 33.5201 32.5549 34.3494 31.4161L33.5411 30.8274ZM30.8739 30.6025H33.3929V29.6025H30.8739V30.6025ZM26.5941 32.8953C28.1471 32.5392 29.5667 31.7663 30.715 30.6712L30.0248 29.9475C29.0043 30.9207 27.7452 31.6054 26.3707 31.9206L26.5941 32.8953ZM20.3577 31.9853C22.2581 33.0568 24.4759 33.381 26.5941 32.8953L26.3707 31.9206C24.4965 32.3503 22.5334 32.0641 20.8488 31.1142L20.3577 31.9853ZM16.2748 27.0838C17.0071 29.1701 18.4577 30.9139 20.3577 31.9853L20.8489 31.1142C19.1639 30.1641 17.8718 28.6142 17.2184 26.7526L16.2748 27.0838ZM15.9222 25.7842C16.0077 26.2234 16.1253 26.6578 16.2748 27.0838L17.2184 26.7526C17.085 26.3725 16.9801 25.9849 16.9037 25.5929L15.9222 25.7842ZM11.7 25.5771H15.6966V24.5771H11.7V25.5771ZM10.5 24.0002V24.3771H11.5V24.0002H10.5ZM11.5754 18.4554C10.8654 20.2136 10.5001 22.0976 10.5 23.9999L11.5 24C11.5001 22.2255 11.8409 20.4686 12.5027 18.8299L11.5754 18.4554ZM14.64 13.7516C13.3267 15.0986 12.2855 16.6971 11.5754 18.4554L12.5027 18.8299C13.1645 17.191 14.1343 15.7027 15.356 14.4497L14.64 13.7516ZM19.2309 10.6055C17.5132 11.3353 15.9534 12.4045 14.64 13.7516L15.356 14.4497C16.5777 13.1966 18.0274 12.2033 19.6219 11.5259L19.2309 10.6055ZM24.65 9.5C22.79 9.5 20.9486 9.87577 19.2309 10.6055L19.6219 11.5259C21.2164 10.8485 22.9249 10.5 24.65 10.5V9.5ZM30.0691 10.6055C28.3515 9.87577 26.51 9.5 24.65 9.5V10.5C26.3751 10.5 28.0836 10.8485 29.6781 11.5259L30.0691 10.6055ZM34.66 13.7516C33.3467 12.4045 31.7868 11.3353 30.0691 10.6055L29.6781 11.5259C31.2727 12.2033 32.7223 13.1966 33.944 14.4496L34.66 13.7516ZM37.7246 18.4554C37.0145 16.6971 35.9733 15.0986 34.66 13.7516L33.944 14.4496C35.1657 15.7027 36.1355 17.191 36.7973 18.8299L37.7246 18.4554ZM38.4258 20.6878C38.2517 19.9273 38.0175 19.1807 37.7246 18.4554L36.7973 18.8299C37.0703 19.5058 37.2887 20.2019 37.4511 20.911L38.4258 20.6878ZM39.5 22.9234C39.5 22.1063 39.1374 21.3722 38.5645 20.8845L37.9163 21.646C38.2716 21.9485 38.5 22.4067 38.5 22.9234H39.5ZM36.9 25.5773C38.3478 25.5773 39.5 24.3771 39.5 22.9234H38.5C38.5 23.8489 37.7718 24.5773 36.9 24.5773V25.5773ZM34.3 22.9234C34.3 24.3771 35.4522 25.5773 36.9 25.5773V24.5773C36.0282 24.5773 35.3 23.8489 35.3 22.9234H34.3ZM37.4511 20.911C37.5239 21.229 37.715 21.4746 37.9163 21.646L38.5645 20.8845C38.477 20.81 38.4377 20.7396 38.4258 20.6878L37.4511 20.911ZM11.5 24.0002C11.5 24.0342 11.4965 24.0681 11.4897 24.1013L10.5104 23.8988C10.5035 23.9322 10.5 23.9661 10.5 24.0002H11.5ZM11.7 24.5771C11.5895 24.5771 11.5 24.4875 11.5 24.3771H10.5C10.5 25.0398 11.0373 25.5771 11.7 25.5771V24.5771ZM16.9037 25.5929C16.7944 25.0322 16.3104 24.5771 15.6966 24.5771V25.5771C15.79 25.5771 15.8962 25.6508 15.9222 25.7842L16.9037 25.5929ZM30.8739 29.6025C30.548 29.6025 30.2474 29.7353 30.0248 29.9475L30.715 30.6712C30.765 30.6235 30.8231 30.6025 30.8739 30.6025V29.6025ZM14.1262 32.0948C13.9583 31.8646 13.6967 31.7571 13.45 31.7571V32.7571C13.4165 32.7571 13.3607 32.7422 13.3185 32.6843L14.1262 32.0948ZM36.4 30.0169C36.4 30.0478 36.3931 30.0753 36.382 30.0979L37.2788 30.5402C37.3603 30.375 37.4 30.1954 37.4 30.0169H36.4ZM36.2 28.4486C36.3104 28.4486 36.4 28.5382 36.4 28.6486H37.4C37.4 27.9859 36.8627 27.4486 36.2 27.4486V28.4486ZM14.9903 30.5527C14.8983 30.8903 14.8907 31.3488 15.1812 31.7227L15.9709 31.1092C15.9428 31.0731 15.9106 30.979 15.9551 30.8156L14.9903 30.5527ZM11.4897 24.1013C11.4966 24.0679 11.5 24.0339 11.5 24L10.5 23.9999C10.5 23.9661 10.5035 23.9322 10.5104 23.8988L11.4897 24.1013ZM29.8018 28.5438C29.858 28.477 29.9279 28.4486 29.986 28.4486V27.4486C29.6042 27.4486 29.2636 27.6302 29.0366 27.8999L29.8018 28.5438ZM12.6922 22.0887C12.581 22.8191 13.1649 23.4232 13.8599 23.4232V22.4232C13.7329 22.4232 13.6683 22.3215 13.6808 22.2393L12.6922 22.0887ZM34.3494 31.4161C34.9363 30.6104 34.293 29.6025 33.3929 29.6025V30.6025C33.4739 30.6025 33.5272 30.643 33.5529 30.6897C33.5659 30.7133 33.5704 30.7361 33.5696 30.7555C33.5688 30.7727 33.5634 30.7968 33.5411 30.8274L34.3494 31.4161ZM30.037 23.4229C30.7555 23.4229 31.3878 22.7565 31.1567 21.9773L30.198 22.2616C30.2091 22.2992 30.2022 22.3305 30.1776 22.3607C30.1501 22.3945 30.1011 22.4229 30.037 22.4229V23.4229ZM32.5387 24.4341C32.5353 24.4995 32.4749 24.5773 32.3641 24.5768L32.3596 25.5768C32.9583 25.5795 33.5038 25.1293 33.5373 24.4862L32.5387 24.4341ZM15.6965 23.4232C16.3103 23.4232 16.7943 22.968 16.9036 22.4072L15.922 22.216C15.896 22.3494 15.7899 22.4232 15.6965 22.4232V23.4232ZM35.8084 21.7143C36.1053 21.4277 36.3897 20.932 36.2251 20.3796L35.2668 20.6652C35.2751 20.6932 35.2771 20.7332 35.2546 20.7926C35.2309 20.8553 35.1835 20.9277 35.1139 20.9948L35.8084 21.7143Z" fill="white" mask="url(#path-3-outside-1_11_17)"/>
</g>
<defs>
<filter id="filter0_di_11_17" x="0" y="0" width="50" height="50" filterUnits="userSpaceOnUse" color-interpolation-filters="sRGB">
<feFlood flood-opacity="0" result="BackgroundImageFix"/>
<feColorMatrix in="SourceAlpha" type="matrix" values="0 0 0 0 0 0 0 0 0 0 0 0 0 0 0 0 0 0 127 0" result="hardAlpha"/>
<feOffset dy="1"/>
<feGaussianBlur stdDeviation="0.5"/>
<feComposite in2="hardAlpha" operator="out"/>
<feColorMatrix type="matrix" values="0 0 0 0 0 0 0 0 0 0 0 0 0 0 0 0 0 0 0.1 0"/>
<feBlend mode="normal" in2="BackgroundImageFix" result="effect1_dropShadow_11_17"/>
<feBlend mode="normal" in="SourceGraphic" in2="effect1_dropShadow_11_17" result="shape"/>
<feColorMatrix in="SourceAlpha" type="matrix" values="0 0 0 0 0 0 0 0 0 0 0 0 0 0 0 0 0 0 127 0" result="hardAlpha"/>
<feOffset dy="2"/>
<feComposite in2="hardAlpha" operator="arithmetic" k2="-1" k3="1"/>
<feColorMatrix type="matrix" values="0 0 0 0 1 0 0 0 0 1 0 0 0 0 1 0 0 0 0.3 0"/>
<feBlend mode="normal" in2="shape" result="effect2_innerShadow_11_17"/>
</filter>
<filter id="filter1_d_11_17" x="10.5" y="9.5" width="29" height="30.0001" filterUnits="userSpaceOnUse" color-interpolation-filters="sRGB">
<feFlood flood-opacity="0" result="BackgroundImageFix"/>
<feColorMatrix in="SourceAlpha" type="matrix" values="0 0 0 0 0 0 0 0 0 0 0 0 0 0 0 0 0 0 127 0" result="hardAlpha"/>
<feOffset dy="1"/>
<feComposite in2="hardAlpha" operator="out"/>
<feColorMatrix type="matrix" values="0 0 0 0 0.279167 0 0 0 0 0.279167 0 0 0 0 0.279167 0 0 0 0.45 0"/>
<feBlend mode="normal" in2="BackgroundImageFix" result="effect1_dropShadow_11_17"/>
<feBlend mode="normal" in="SourceGraphic" in2="effect1_dropShadow_11_17" result="shape"/>
</filter>
<linearGradient id="paint0_linear_11_17" x1="25" y1="0" x2="25" y2="48" gradientUnits="userSpaceOnUse">
<stop stop-color="#1A8C42"/>
<stop offset="1" stop-color="#06491E"/>
</linearGradient>
</defs>
</svg>
