<svg width="20" height="20" viewBox="0 0 20 20" fill="none" xmlns="http://www.w3.org/2000/svg">
<g clip-path="url(#clip0_0_602)">
<path d="M10.0005 8.18188V12.0546H15.3823C15.146 13.3001 14.4368 14.3547 13.3732 15.0638L16.6187 17.582C18.5096 15.8366 19.6005 13.2729 19.6005 10.2275C19.6005 9.51837 19.5369 8.83648 19.4187 8.18199L10.0005 8.18188Z" fill="#4285F4"/>
<path d="M4.39618 11.9031L3.66421 12.4634L1.07324 14.4816C2.7187 17.7452 6.0912 19.9998 10.0003 19.9998C12.7002 19.9998 14.9639 19.1089 16.6184 17.5816L13.373 15.0634C12.4821 15.6634 11.3457 16.0271 10.0003 16.0271C7.40028 16.0271 5.19124 14.2725 4.40027 11.9088L4.39618 11.9031Z" fill="#34A853"/>
<path d="M1.07266 5.51831C0.390871 6.86372 0 8.38193 0 10.0001C0 11.6183 0.390871 13.1365 1.07266 14.4819C1.07266 14.4909 4.40001 11.9 4.40001 11.9C4.20001 11.3 4.08179 10.6637 4.08179 9.99999C4.08179 9.33626 4.20001 8.69993 4.40001 8.09993L1.07266 5.51831Z" fill="#FBBC05"/>
<path d="M10.0005 3.98184C11.4733 3.98184 12.7823 4.49092 13.8278 5.47275L16.6914 2.60914C14.955 0.990976 12.7005 0 10.0005 0C6.09141 0 2.7187 2.24546 1.07324 5.51822L4.40049 8.10005C5.19136 5.73638 7.40049 3.98184 10.0005 3.98184Z" fill="#EA4335"/>
</g>
<defs>
<clipPath id="clip0_0_602">
<rect width="19.6" height="20" fill="white"/>
</clipPath>
</defs>
</svg>
