<svg width="52" height="52" viewBox="0 0 52 52" fill="none" xmlns="http://www.w3.org/2000/svg">
<g filter="url(#filter0_di_0_261)">
<path d="M2 9C2 4.58172 5.58172 1 10 1H42C46.4183 1 50 4.58172 50 9V41C50 45.4183 46.4183 49 42 49H10C5.58172 49 2 45.4183 2 41V9Z" fill="#1F8844"/>
<path d="M10 0.5C5.30558 0.5 1.5 4.30558 1.5 9V41C1.5 45.6944 5.30558 49.5 10 49.5H42C46.6944 49.5 50.5 45.6944 50.5 41V9C50.5 4.30558 46.6944 0.5 42 0.5H10Z" stroke="#1A763A"/>
</g>
<g filter="url(#filter1_d_0_261)">
<mask id="path-3-outside-1_0_261" maskUnits="userSpaceOnUse" x="11" y="10" width="30" height="30" fill="black">
<rect fill="white" x="11" y="10" width="30" height="30"/>
<path fill-rule="evenodd" clip-rule="evenodd" d="M35.8 23.9234C35.8 23.305 36.0541 22.7474 36.4611 22.3546C36.6877 22.1359 36.8358 21.8241 36.7459 21.5224C36.6375 21.1584 36.5119 20.7992 36.3693 20.4463C35.7862 19.0025 34.9316 17.6906 33.8542 16.5856C32.7768 15.4805 31.4978 14.604 30.0901 14.0059C28.6824 13.4079 27.1737 13.1 25.65 13.1C24.1264 13.1 22.6176 13.4079 21.2099 14.0059C19.8023 14.604 18.5232 15.4805 17.4458 16.5856C16.3684 17.6906 15.5138 19.0025 14.9307 20.4463C14.5776 21.3207 14.3282 22.2332 14.1865 23.164C14.1246 23.5703 14.4489 23.9232 14.8599 23.9232H16.6965C17.0501 23.9232 17.3452 23.6587 17.4128 23.3116C17.5109 22.8081 17.6533 22.3116 17.8399 21.8282C18.5929 19.8775 20.0139 18.2757 21.8365 17.3233C23.659 16.3708 25.7578 16.1332 27.739 16.6549C29.7202 17.1767 31.4477 18.4219 32.5975 20.1571C33.6332 21.7203 34.1359 23.5843 34.038 25.4602C34.0195 25.8144 33.7166 26.0784 33.3618 26.0768L33.35 26.0768L23.5769 26.0768C22.9822 26.0768 22.5 25.5946 22.5 24.9998C22.5 24.405 22.9822 23.9229 23.5769 23.9229H31.037C31.4691 23.9229 31.8002 23.5337 31.6773 23.1195C31.4941 22.5016 31.2202 21.9106 30.8606 21.3678C29.9983 20.0664 28.7027 19.1324 27.2167 18.7411C25.7308 18.3499 24.1568 18.528 22.7899 19.2424C21.4229 19.9568 20.3571 21.1581 19.7924 22.6211C19.2277 24.0841 19.2028 25.7082 19.7224 27.1887C20.2421 28.6691 21.2706 29.9042 22.6149 30.6622C23.9593 31.4203 25.5271 31.6491 27.0243 31.3059C28.3492 31.0021 29.5382 30.2688 30.4192 29.2219C30.5608 29.0536 30.766 28.9486 30.986 28.9486H37.2C37.5866 28.9486 37.9 29.262 37.9 29.6486V31.0169C37.9 31.1216 37.8767 31.2252 37.8304 31.3191C36.7621 33.4853 35.1617 35.3318 33.1839 36.6745C31.0847 38.0996 28.6422 38.9015 26.1264 38.9916C23.6105 39.0817 21.1194 38.4565 18.9284 37.1851C17.2798 36.2284 15.8494 34.9339 14.7223 33.3895C14.6595 33.3034 14.5566 33.2571 14.45 33.2571C13.2902 33.2571 12.35 32.2927 12.35 31.1032C12.35 29.9136 13.2902 28.9493 14.45 28.9493C15.6098 28.9493 16.55 29.9136 16.55 31.1032C16.55 31.3045 16.5231 31.4993 16.4727 31.6842C16.4044 31.9346 16.4167 32.2109 16.576 32.416C17.4985 33.6033 18.6379 34.6036 19.9366 35.3573C21.799 36.438 23.9165 36.9694 26.0549 36.8928C28.1934 36.8162 30.2695 36.1346 32.0538 34.9233C33.1726 34.1638 34.1494 33.2145 34.9453 32.1218C35.2632 31.6852 34.933 31.1025 34.3929 31.1025H31.8739C31.6856 31.1025 31.5062 31.1794 31.3699 31.3094C30.2855 32.3435 28.9462 33.0723 27.4824 33.4079C25.4862 33.8656 23.3957 33.5604 21.6033 32.5498C19.8108 31.539 18.4395 29.8922 17.7466 27.9182C17.6051 27.5152 17.4939 27.1041 17.4129 26.6886C17.3453 26.3415 17.0502 26.0771 16.6966 26.0771H12.7C12.3134 26.0771 12 25.7637 12 25.3771V25.0002C12 25.0001 12 25.0001 12 25.0001C12 25 12 25 12 24.9999C12.0001 23.1615 12.3531 21.3411 13.0391 19.6426C13.725 17.944 14.7305 16.4007 15.998 15.1006C17.2655 13.8006 18.7703 12.7693 20.4264 12.0657C22.0825 11.3621 23.8575 11 25.65 11C27.4426 11 29.2175 11.3621 30.8736 12.0657C32.5297 12.7693 34.0345 13.8006 35.302 15.1006C36.5695 16.4007 37.575 17.944 38.261 19.6426C38.5439 20.3433 38.7702 21.0646 38.9385 21.7994C38.9808 21.9843 39.096 22.1423 39.2404 22.2653C39.7045 22.6603 40 23.2565 40 23.9234C40 25.113 39.0598 26.0773 37.9 26.0773C36.7402 26.0773 35.8 25.113 35.8 23.9234Z"/>
</mask>
<path fill-rule="evenodd" clip-rule="evenodd" d="M35.8 23.9234C35.8 23.305 36.0541 22.7474 36.4611 22.3546C36.6877 22.1359 36.8358 21.8241 36.7459 21.5224C36.6375 21.1584 36.5119 20.7992 36.3693 20.4463C35.7862 19.0025 34.9316 17.6906 33.8542 16.5856C32.7768 15.4805 31.4978 14.604 30.0901 14.0059C28.6824 13.4079 27.1737 13.1 25.65 13.1C24.1264 13.1 22.6176 13.4079 21.2099 14.0059C19.8023 14.604 18.5232 15.4805 17.4458 16.5856C16.3684 17.6906 15.5138 19.0025 14.9307 20.4463C14.5776 21.3207 14.3282 22.2332 14.1865 23.164C14.1246 23.5703 14.4489 23.9232 14.8599 23.9232H16.6965C17.0501 23.9232 17.3452 23.6587 17.4128 23.3116C17.5109 22.8081 17.6533 22.3116 17.8399 21.8282C18.5929 19.8775 20.0139 18.2757 21.8365 17.3233C23.659 16.3708 25.7578 16.1332 27.739 16.6549C29.7202 17.1767 31.4477 18.4219 32.5975 20.1571C33.6332 21.7203 34.1359 23.5843 34.038 25.4602C34.0195 25.8144 33.7166 26.0784 33.3618 26.0768L33.35 26.0768L23.5769 26.0768C22.9822 26.0768 22.5 25.5946 22.5 24.9998C22.5 24.405 22.9822 23.9229 23.5769 23.9229H31.037C31.4691 23.9229 31.8002 23.5337 31.6773 23.1195C31.4941 22.5016 31.2202 21.9106 30.8606 21.3678C29.9983 20.0664 28.7027 19.1324 27.2167 18.7411C25.7308 18.3499 24.1568 18.528 22.7899 19.2424C21.4229 19.9568 20.3571 21.1581 19.7924 22.6211C19.2277 24.0841 19.2028 25.7082 19.7224 27.1887C20.2421 28.6691 21.2706 29.9042 22.6149 30.6622C23.9593 31.4203 25.5271 31.6491 27.0243 31.3059C28.3492 31.0021 29.5382 30.2688 30.4192 29.2219C30.5608 29.0536 30.766 28.9486 30.986 28.9486H37.2C37.5866 28.9486 37.9 29.262 37.9 29.6486V31.0169C37.9 31.1216 37.8767 31.2252 37.8304 31.3191C36.7621 33.4853 35.1617 35.3318 33.1839 36.6745C31.0847 38.0996 28.6422 38.9015 26.1264 38.9916C23.6105 39.0817 21.1194 38.4565 18.9284 37.1851C17.2798 36.2284 15.8494 34.9339 14.7223 33.3895C14.6595 33.3034 14.5566 33.2571 14.45 33.2571C13.2902 33.2571 12.35 32.2927 12.35 31.1032C12.35 29.9136 13.2902 28.9493 14.45 28.9493C15.6098 28.9493 16.55 29.9136 16.55 31.1032C16.55 31.3045 16.5231 31.4993 16.4727 31.6842C16.4044 31.9346 16.4167 32.2109 16.576 32.416C17.4985 33.6033 18.6379 34.6036 19.9366 35.3573C21.799 36.438 23.9165 36.9694 26.0549 36.8928C28.1934 36.8162 30.2695 36.1346 32.0538 34.9233C33.1726 34.1638 34.1494 33.2145 34.9453 32.1218C35.2632 31.6852 34.933 31.1025 34.3929 31.1025H31.8739C31.6856 31.1025 31.5062 31.1794 31.3699 31.3094C30.2855 32.3435 28.9462 33.0723 27.4824 33.4079C25.4862 33.8656 23.3957 33.5604 21.6033 32.5498C19.8108 31.539 18.4395 29.8922 17.7466 27.9182C17.6051 27.5152 17.4939 27.1041 17.4129 26.6886C17.3453 26.3415 17.0502 26.0771 16.6966 26.0771H12.7C12.3134 26.0771 12 25.7637 12 25.3771V25.0002C12 25.0001 12 25.0001 12 25.0001C12 25 12 25 12 24.9999C12.0001 23.1615 12.3531 21.3411 13.0391 19.6426C13.725 17.944 14.7305 16.4007 15.998 15.1006C17.2655 13.8006 18.7703 12.7693 20.4264 12.0657C22.0825 11.3621 23.8575 11 25.65 11C27.4426 11 29.2175 11.3621 30.8736 12.0657C32.5297 12.7693 34.0345 13.8006 35.302 15.1006C36.5695 16.4007 37.575 17.944 38.261 19.6426C38.5439 20.3433 38.7702 21.0646 38.9385 21.7994C38.9808 21.9843 39.096 22.1423 39.2404 22.2653C39.7045 22.6603 40 23.2565 40 23.9234C40 25.113 39.0598 26.0773 37.9 26.0773C36.7402 26.0773 35.8 25.113 35.8 23.9234Z" fill="white"/>
<path d="M36.3693 20.4463L36.8329 20.2591L36.3693 20.4463ZM30.0901 14.0059L29.8946 14.4661V14.4661L30.0901 14.0059ZM21.2099 14.0059L21.4054 14.4661V14.4661L21.2099 14.0059ZM17.4458 16.5856L17.8038 16.9346L17.4458 16.5856ZM14.9307 20.4463L15.3943 20.6335L14.9307 20.4463ZM17.8399 21.8282L18.3063 22.0083L17.8399 21.8282ZM21.8365 17.3233L22.068 17.7664L22.0681 17.7664L21.8365 17.3233ZM27.739 16.6549L27.8663 16.1714L27.8663 16.1714L27.739 16.6549ZM32.5975 20.1571L32.1807 20.4333L32.5975 20.1571ZM33.35 26.0768L33.3523 25.5768H33.35V26.0768ZM23.5769 26.0768V25.5768V26.0768ZM30.8606 21.3678L31.2774 21.0917L31.2774 21.0916L30.8606 21.3678ZM27.2167 18.7411L27.3441 18.2576L27.344 18.2576L27.2167 18.7411ZM22.7899 19.2424L22.5583 18.7993L22.7899 19.2424ZM19.7924 22.6211L19.3259 22.441V22.441L19.7924 22.6211ZM19.7224 27.1887L20.1942 27.0231L19.7224 27.1887ZM22.6149 30.6622L22.8605 30.2267L22.8605 30.2267L22.6149 30.6622ZM27.0243 31.3059L27.136 31.7933L27.1361 31.7933L27.0243 31.3059ZM33.1839 36.6745L32.9031 36.2608L33.1839 36.6745ZM26.1264 38.9916L26.1443 39.4913L26.1264 38.9916ZM18.9284 37.1851L18.6775 37.6175H18.6775L18.9284 37.1851ZM19.9366 35.3573L19.6857 35.7897L19.9366 35.3573ZM26.0549 36.8928L26.037 36.3932H26.037L26.0549 36.8928ZM32.0538 34.9233L31.773 34.5096L32.0538 34.9233ZM27.4824 33.4079L27.5941 33.8953L27.5941 33.8953L27.4824 33.4079ZM21.6033 32.5498L21.3577 32.9853L21.3577 32.9853L21.6033 32.5498ZM17.7466 27.9182L18.2184 27.7526L18.2184 27.7526L17.7466 27.9182ZM13.0391 19.6426L12.5754 19.4554H12.5754L13.0391 19.6426ZM15.998 15.1006L16.356 15.4497L15.998 15.1006ZM20.4264 12.0657L20.6219 12.5259L20.4264 12.0657ZM30.8736 12.0657L30.6781 12.5259L30.8736 12.0657ZM35.302 15.1006L35.66 14.7516L35.302 15.1006ZM38.261 19.6426L38.7246 19.4554L38.261 19.6426ZM38.9385 21.7994L38.4511 21.911L38.9385 21.7994ZM39.2404 22.2653L38.9163 22.646L39.2404 22.2653ZM17.4129 26.6886L16.9222 26.7842L17.4129 26.6886ZM31.3699 31.3094L31.715 31.6712L31.3699 31.3094ZM14.7223 33.3895L14.3185 33.6843L14.7223 33.3895ZM37.8304 31.3191L38.2788 31.5402L37.8304 31.3191ZM16.576 32.416L16.9709 32.1092L16.576 32.416ZM30.4192 29.2219L30.0366 28.8999L30.4192 29.2219ZM34.9453 32.1218L35.3494 32.4161L34.9453 32.1218ZM31.6773 23.1195L32.1567 22.9773L31.6773 23.1195ZM34.038 25.4602L33.5387 25.4341L34.038 25.4602ZM33.3618 26.0768L33.3596 26.5768L33.3618 26.0768ZM17.4128 23.3116L16.922 23.216L17.4128 23.3116ZM36.4611 22.3546L36.8084 22.7143L36.4611 22.3546ZM36.7459 21.5224L37.2251 21.3796L36.7459 21.5224ZM36.1139 21.9948C35.6118 22.4794 35.3 23.1658 35.3 23.9234H36.3C36.3 23.4442 36.4964 23.0154 36.8084 22.7143L36.1139 21.9948ZM35.9057 20.6335C36.0423 20.9718 36.1628 21.3161 36.2668 21.6652L37.2251 21.3796C37.1122 21.0006 36.9814 20.6266 36.8329 20.2591L35.9057 20.6335ZM33.4962 16.9346C34.5278 17.9927 35.3467 19.2495 35.9057 20.6335L36.8329 20.2591C36.2257 18.7555 35.3354 17.3885 34.2122 16.2365L33.4962 16.9346ZM29.8946 14.4661C31.2407 15.038 32.4647 15.8766 33.4962 16.9346L34.2122 16.2365C33.089 15.0845 31.7548 14.1699 30.2856 13.5457L29.8946 14.4661ZM25.65 13.6C27.1062 13.6 28.5485 13.8942 29.8946 14.4661L30.2856 13.5457C28.8163 12.9215 27.2411 12.6 25.65 12.6V13.6ZM21.4054 14.4661C22.7515 13.8942 24.1938 13.6 25.65 13.6V12.6C24.0589 12.6 22.4837 12.9215 21.0144 13.5457L21.4054 14.4661ZM17.8038 16.9346C18.8354 15.8766 20.0593 15.038 21.4054 14.4661L21.0144 13.5457C19.5452 14.1699 18.211 15.0845 17.0878 16.2365L17.8038 16.9346ZM15.3943 20.6335C15.9533 19.2495 16.7722 17.9927 17.8038 16.9346L17.0878 16.2365C15.9646 17.3885 15.0743 18.7555 14.4671 20.2591L15.3943 20.6335ZM14.6808 23.2393C14.8167 22.3466 15.0558 21.4718 15.3943 20.6335L14.4671 20.2591C14.0993 21.1697 13.8397 22.1197 13.6922 23.0887L14.6808 23.2393ZM16.6965 23.4232H14.8599V24.4232H16.6965V23.4232ZM17.3734 21.6481C17.1762 22.1591 17.0257 22.6839 16.922 23.216L17.9036 23.4072C17.9961 22.9323 18.1304 22.464 18.3063 22.0083L17.3734 21.6481ZM21.6049 16.8802C19.6727 17.8899 18.1693 19.5863 17.3734 21.6481L18.3063 22.0083C19.0164 20.1688 20.3551 18.6616 22.068 17.7664L21.6049 16.8802ZM27.8663 16.1714C25.7641 15.6178 23.5374 15.8702 21.6049 16.8802L22.0681 17.7664C23.7806 16.8714 25.7514 16.6485 27.6117 17.1384L27.8663 16.1714ZM33.0143 19.881C31.798 18.0452 29.9683 16.725 27.8663 16.1714L27.6116 17.1384C29.4721 17.6284 31.0975 18.7986 32.1807 20.4333L33.0143 19.881ZM34.5373 25.4862C34.6407 23.5046 34.1098 21.5345 33.0143 19.881L32.1807 20.4333C33.1565 21.9062 33.6311 23.664 33.5387 25.4341L34.5373 25.4862ZM33.3477 26.5768L33.3596 26.5768L33.3641 25.5768L33.3523 25.5768L33.3477 26.5768ZM23.5769 26.5768L33.35 26.5768V25.5768L23.5769 25.5768V26.5768ZM22 24.9998C22 25.8707 22.706 26.5768 23.5769 26.5768V25.5768C23.2583 25.5768 23 25.3184 23 24.9998H22ZM23.5769 23.4229C22.706 23.4229 22 24.1289 22 24.9998H23C23 24.6812 23.2583 24.4229 23.5769 24.4229V23.4229ZM31.037 23.4229H23.5769V24.4229H31.037V23.4229ZM30.4438 21.644C30.7756 22.1448 31.0287 22.6906 31.198 23.2616L32.1567 22.9773C31.9596 22.3125 31.6648 21.6763 31.2774 21.0917L30.4438 21.644ZM27.0894 19.2246C28.4546 19.5841 29.6481 20.4431 30.4438 21.644L31.2774 21.0916C30.3485 19.6898 28.9507 18.6807 27.3441 18.2576L27.0894 19.2246ZM23.0214 19.6855C24.2784 19.0286 25.7245 18.8652 27.0894 19.2246L27.344 18.2576C25.7372 17.8345 24.0352 18.0274 22.5583 18.7993L23.0214 19.6855ZM20.2589 22.8012C20.7807 21.4494 21.7641 20.3426 23.0214 19.6855L22.5583 18.7993C21.0818 19.5709 19.9336 20.8668 19.3259 22.441L20.2589 22.8012ZM20.1942 27.0231C19.7139 25.6547 19.737 24.1532 20.2589 22.8012L19.3259 22.441C18.7184 24.015 18.6916 25.7617 19.2507 27.3543L20.1942 27.0231ZM22.8605 30.2267C21.6237 29.5293 20.6744 28.3912 20.1942 27.0231L19.2507 27.3543C19.8098 28.9471 20.9175 30.2791 22.3694 31.0977L22.8605 30.2267ZM26.9126 30.8186C25.5374 31.1338 24.097 30.9239 22.8605 30.2267L22.3693 31.0977C23.8216 31.9167 25.5168 32.1645 27.136 31.7933L26.9126 30.8186ZM30.0366 28.8999C29.2243 29.8653 28.1297 30.5394 26.9125 30.8186L27.1361 31.7933C28.5687 31.4647 29.8521 30.6723 30.8018 29.5438L30.0366 28.8999ZM37.2 28.4486H30.986V29.4486H37.2V28.4486ZM38.4 31.0169V29.6486H37.4V31.0169H38.4ZM33.4648 37.0882C35.5151 35.6962 37.1728 33.7829 38.2788 31.5402L37.382 31.0979C36.3514 33.1876 34.8083 34.9674 32.9031 36.2608L33.4648 37.0882ZM26.1443 39.4913C28.7549 39.3978 31.2884 38.5656 33.4648 37.0882L32.9031 36.2608C30.8811 37.6335 28.5295 38.4052 26.1085 38.4919L26.1443 39.4913ZM18.6775 37.6175C20.9494 38.9359 23.5336 39.5848 26.1443 39.4913L26.1085 38.4919C23.6874 38.5786 21.2894 37.9771 19.1794 36.7526L18.6775 37.6175ZM14.3185 33.6843C15.4858 35.2839 16.968 36.6256 18.6775 37.6175L19.1794 36.7526C17.5916 35.8312 16.213 34.5839 15.1262 33.0948L14.3185 33.6843ZM11.85 31.1032C11.85 32.5569 13.0022 33.7571 14.45 33.7571V32.7571C13.5782 32.7571 12.85 32.0286 12.85 31.1032H11.85ZM14.45 28.4493C13.0022 28.4493 11.85 29.6495 11.85 31.1032H12.85C12.85 30.1777 13.5782 29.4493 14.45 29.4493V28.4493ZM17.05 31.1032C17.05 29.6495 15.8978 28.4493 14.45 28.4493V29.4493C15.3218 29.4493 16.05 30.1777 16.05 31.1032H17.05ZM16.9551 31.8156C17.017 31.5883 17.05 31.3492 17.05 31.1032H16.05C16.05 31.2597 16.0291 31.4104 15.9903 31.5527L16.9551 31.8156ZM20.1876 34.9248C18.9452 34.2039 17.8545 33.2465 16.9709 32.1092L16.1812 32.7227C17.1426 33.9602 18.3306 35.0034 19.6857 35.7897L20.1876 34.9248ZM26.037 36.3932C23.9933 36.4664 21.969 35.9586 20.1876 34.9248L19.6857 35.7897C21.629 36.9174 23.8396 37.4725 26.0728 37.3925L26.037 36.3932ZM31.773 34.5096C30.0658 35.6685 28.0807 36.32 26.037 36.3932L26.0728 37.3925C28.306 37.3125 30.4732 36.6007 32.3347 35.337L31.773 34.5096ZM34.5411 31.8274C33.7787 32.8742 32.8435 33.7829 31.773 34.5096L32.3347 35.337C33.5018 34.5446 34.5201 33.5549 35.3494 32.4161L34.5411 31.8274ZM31.8739 31.6025H34.3929V30.6025H31.8739V31.6025ZM27.5941 33.8953C29.1471 33.5392 30.5667 32.7663 31.715 31.6712L31.0248 30.9475C30.0043 31.9207 28.7452 32.6054 27.3707 32.9206L27.5941 33.8953ZM21.3577 32.9853C23.2581 34.0568 25.4759 34.381 27.5941 33.8953L27.3707 32.9206C25.4965 33.3503 23.5334 33.0641 21.8488 32.1142L21.3577 32.9853ZM17.2748 28.0838C18.0071 30.1701 19.4577 31.9139 21.3577 32.9853L21.8489 32.1142C20.1639 31.1641 18.8718 29.6142 18.2184 27.7526L17.2748 28.0838ZM16.9222 26.7842C17.0077 27.2234 17.1253 27.6578 17.2748 28.0838L18.2184 27.7526C18.085 27.3725 17.9801 26.9849 17.9037 26.5929L16.9222 26.7842ZM12.7 26.5771H16.6966V25.5771H12.7V26.5771ZM11.5 25.0002V25.3771H12.5V25.0002H11.5ZM12.5754 19.4554C11.8654 21.2136 11.5001 23.0976 11.5 24.9999L12.5 25C12.5001 23.2255 12.8409 21.4686 13.5027 19.8299L12.5754 19.4554ZM15.64 14.7516C14.3267 16.0986 13.2855 17.6971 12.5754 19.4554L13.5027 19.8299C14.1645 18.191 15.1343 16.7027 16.356 15.4497L15.64 14.7516ZM20.2309 11.6055C18.5132 12.3353 16.9534 13.4045 15.64 14.7516L16.356 15.4497C17.5777 14.1966 19.0274 13.2033 20.6219 12.5259L20.2309 11.6055ZM25.65 10.5C23.79 10.5 21.9486 10.8758 20.2309 11.6055L20.6219 12.5259C22.2164 11.8485 23.9249 11.5 25.65 11.5V10.5ZM31.0691 11.6055C29.3515 10.8758 27.51 10.5 25.65 10.5V11.5C27.3751 11.5 29.0836 11.8485 30.6781 12.5259L31.0691 11.6055ZM35.66 14.7516C34.3467 13.4045 32.7868 12.3353 31.0691 11.6055L30.6781 12.5259C32.2727 13.2033 33.7223 14.1966 34.944 15.4496L35.66 14.7516ZM38.7246 19.4554C38.0145 17.6971 36.9733 16.0986 35.66 14.7516L34.944 15.4496C36.1657 16.7027 37.1355 18.191 37.7973 19.8299L38.7246 19.4554ZM39.4258 21.6878C39.2517 20.9273 39.0175 20.1807 38.7246 19.4554L37.7973 19.8299C38.0703 20.5058 38.2887 21.2019 38.4511 21.911L39.4258 21.6878ZM40.5 23.9234C40.5 23.1063 40.1374 22.3722 39.5645 21.8845L38.9163 22.646C39.2716 22.9485 39.5 23.4067 39.5 23.9234H40.5ZM37.9 26.5773C39.3478 26.5773 40.5 25.3771 40.5 23.9234H39.5C39.5 24.8489 38.7718 25.5773 37.9 25.5773V26.5773ZM35.3 23.9234C35.3 25.3771 36.4522 26.5773 37.9 26.5773V25.5773C37.0282 25.5773 36.3 24.8489 36.3 23.9234H35.3ZM38.4511 21.911C38.5239 22.229 38.715 22.4746 38.9163 22.646L39.5645 21.8845C39.477 21.81 39.4377 21.7396 39.4258 21.6878L38.4511 21.911ZM12.5 25.0002C12.5 25.0342 12.4965 25.0681 12.4897 25.1013L11.5104 24.8988C11.5035 24.9322 11.5 24.9661 11.5 25.0002H12.5ZM12.7 25.5771C12.5895 25.5771 12.5 25.4875 12.5 25.3771H11.5C11.5 26.0398 12.0373 26.5771 12.7 26.5771V25.5771ZM17.9037 26.5929C17.7944 26.0322 17.3104 25.5771 16.6966 25.5771V26.5771C16.79 26.5771 16.8962 26.6508 16.9222 26.7842L17.9037 26.5929ZM31.8739 30.6025C31.548 30.6025 31.2474 30.7353 31.0248 30.9475L31.715 31.6712C31.765 31.6235 31.8231 31.6025 31.8739 31.6025V30.6025ZM15.1262 33.0948C14.9583 32.8646 14.6967 32.7571 14.45 32.7571V33.7571C14.4165 33.7571 14.3607 33.7422 14.3185 33.6843L15.1262 33.0948ZM37.4 31.0169C37.4 31.0478 37.3931 31.0753 37.382 31.0979L38.2788 31.5402C38.3603 31.375 38.4 31.1954 38.4 31.0169H37.4ZM37.2 29.4486C37.3104 29.4486 37.4 29.5382 37.4 29.6486H38.4C38.4 28.9859 37.8627 28.4486 37.2 28.4486V29.4486ZM15.9903 31.5527C15.8983 31.8903 15.8907 32.3488 16.1812 32.7227L16.9709 32.1092C16.9428 32.0731 16.9106 31.979 16.9551 31.8156L15.9903 31.5527ZM12.4897 25.1013C12.4966 25.0679 12.5 25.0339 12.5 25L11.5 24.9999C11.5 24.9661 11.5035 24.9322 11.5104 24.8988L12.4897 25.1013ZM30.8018 29.5438C30.858 29.477 30.9279 29.4486 30.986 29.4486V28.4486C30.6042 28.4486 30.2636 28.6302 30.0366 28.8999L30.8018 29.5438ZM13.6922 23.0887C13.581 23.8191 14.1649 24.4232 14.8599 24.4232V23.4232C14.7329 23.4232 14.6683 23.3215 14.6808 23.2393L13.6922 23.0887ZM35.3494 32.4161C35.9363 31.6104 35.293 30.6025 34.3929 30.6025V31.6025C34.4739 31.6025 34.5272 31.643 34.5529 31.6897C34.5659 31.7133 34.5704 31.7361 34.5696 31.7555C34.5688 31.7727 34.5634 31.7968 34.5411 31.8274L35.3494 32.4161ZM31.037 24.4229C31.7555 24.4229 32.3878 23.7565 32.1567 22.9773L31.198 23.2616C31.2091 23.2992 31.2022 23.3305 31.1776 23.3607C31.1501 23.3945 31.1011 23.4229 31.037 23.4229V24.4229ZM33.5387 25.4341C33.5353 25.4995 33.4749 25.5773 33.3641 25.5768L33.3596 26.5768C33.9583 26.5795 34.5038 26.1293 34.5373 25.4862L33.5387 25.4341ZM16.6965 24.4232C17.3103 24.4232 17.7943 23.968 17.9036 23.4072L16.922 23.216C16.896 23.3494 16.7899 23.4232 16.6965 23.4232V24.4232ZM36.8084 22.7143C37.1053 22.4277 37.3897 21.932 37.2251 21.3796L36.2668 21.6652C36.2751 21.6932 36.2771 21.7332 36.2546 21.7926C36.2309 21.8553 36.1835 21.9277 36.1139 21.9948L36.8084 22.7143Z" fill="white" mask="url(#path-3-outside-1_0_261)"/>
</g>
<defs>
<filter id="filter0_di_0_261" x="0" y="0" width="52" height="52" filterUnits="userSpaceOnUse" color-interpolation-filters="sRGB">
<feFlood flood-opacity="0" result="BackgroundImageFix"/>
<feColorMatrix in="SourceAlpha" type="matrix" values="0 0 0 0 0 0 0 0 0 0 0 0 0 0 0 0 0 0 127 0" result="hardAlpha"/>
<feOffset dy="1"/>
<feGaussianBlur stdDeviation="0.5"/>
<feComposite in2="hardAlpha" operator="out"/>
<feColorMatrix type="matrix" values="0 0 0 0 0 0 0 0 0 0 0 0 0 0 0 0 0 0 0.16 0"/>
<feBlend mode="normal" in2="BackgroundImageFix" result="effect1_dropShadow_0_261"/>
<feBlend mode="normal" in="SourceGraphic" in2="effect1_dropShadow_0_261" result="shape"/>
<feColorMatrix in="SourceAlpha" type="matrix" values="0 0 0 0 0 0 0 0 0 0 0 0 0 0 0 0 0 0 127 0" result="hardAlpha"/>
<feOffset dy="1"/>
<feGaussianBlur stdDeviation="1"/>
<feComposite in2="hardAlpha" operator="arithmetic" k2="-1" k3="1"/>
<feColorMatrix type="matrix" values="0 0 0 0 1 0 0 0 0 1 0 0 0 0 1 0 0 0 0.8 0"/>
<feBlend mode="normal" in2="shape" result="effect2_innerShadow_0_261"/>
</filter>
<filter id="filter1_d_0_261" x="11.5" y="10.5" width="29" height="30" filterUnits="userSpaceOnUse" color-interpolation-filters="sRGB">
<feFlood flood-opacity="0" result="BackgroundImageFix"/>
<feColorMatrix in="SourceAlpha" type="matrix" values="0 0 0 0 0 0 0 0 0 0 0 0 0 0 0 0 0 0 127 0" result="hardAlpha"/>
<feOffset dy="1"/>
<feComposite in2="hardAlpha" operator="out"/>
<feColorMatrix type="matrix" values="0 0 0 0 0.279167 0 0 0 0 0.279167 0 0 0 0 0.279167 0 0 0 0.45 0"/>
<feBlend mode="normal" in2="BackgroundImageFix" result="effect1_dropShadow_0_261"/>
<feBlend mode="normal" in="SourceGraphic" in2="effect1_dropShadow_0_261" result="shape"/>
</filter>
</defs>
</svg>
