<svg width="22" height="20" viewBox="0 0 22 20" fill="none" xmlns="http://www.w3.org/2000/svg">
<g clip-path="url(#clip0_0_615)">
<path d="M14.995 7.5H20.5485C21.0732 7.5 21.4985 7.92532 21.4985 8.45V13.5085C21.4985 15.4368 19.9353 17 18.007 17H17.9905C16.0622 17.0003 14.4988 15.4373 14.4985 13.509C14.4985 13.5088 14.4985 13.5087 14.4985 13.5085V7.9965C14.4985 7.72229 14.7208 7.5 14.995 7.5Z" fill="#5059C9"/>
<path d="M18.7495 6.50025C19.9921 6.50025 20.9995 5.49289 20.9995 4.25024C20.9995 3.0076 19.9921 2.00024 18.7495 2.00024C17.5069 2.00024 16.4995 3.0076 16.4995 4.25024C16.4995 5.49289 17.5069 6.50025 18.7495 6.50025Z" fill="#5059C9"/>
<path d="M11.749 6.50001C13.5439 6.50001 14.999 5.04493 14.999 3.25C14.999 1.45508 13.5439 0 11.749 0C9.95409 0 8.49902 1.45508 8.49902 3.25C8.49902 5.04493 9.95409 6.50001 11.749 6.50001Z" fill="#7B83EB"/>
<path d="M16.0821 7.5H6.91512C6.3967 7.51283 5.9866 7.94306 5.99863 8.46151V14.231C5.92623 17.3421 8.38758 19.9239 11.4986 20C14.6096 19.9239 17.0709 17.3421 16.9986 14.231V8.46151C17.0106 7.94306 16.6005 7.51283 16.0821 7.5Z" fill="#7B83EB"/>
<path opacity="0.1" d="M11.9992 7.5V15.585C11.9968 15.9558 11.7721 16.2888 11.4293 16.43C11.3201 16.4762 11.2028 16.5 11.0843 16.5H6.43928C6.37429 16.335 6.31429 16.17 6.26428 16C6.08926 15.4263 5.99996 14.8298 5.99928 14.23V8.46C5.98726 7.94239 6.39669 7.51283 6.91427 7.5H11.9992Z" fill="black"/>
<path opacity="0.2" d="M11.4993 7.5V16.085C11.4992 16.2035 11.4754 16.3208 11.4293 16.43C11.2881 16.7728 10.955 16.9975 10.5843 17H6.67429C6.58928 16.835 6.50929 16.67 6.43928 16.5C6.36928 16.33 6.31429 16.17 6.26428 16C6.08926 15.4263 5.99996 14.8298 5.99928 14.23V8.46C5.98726 7.94239 6.39669 7.51283 6.91427 7.5H11.4993Z" fill="black"/>
<path opacity="0.2" d="M11.4992 7.5V15.085C11.4954 15.5888 11.088 15.9962 10.5843 16H6.26428C6.08926 15.4263 5.99996 14.8298 5.99928 14.23V8.46C5.98726 7.94239 6.39669 7.51283 6.91427 7.5H11.4992Z" fill="black"/>
<path opacity="0.2" d="M10.9992 7.5V15.085C10.9954 15.5888 10.588 15.9962 10.0842 16H6.26428C6.08926 15.4263 5.99996 14.8298 5.99928 14.23V8.46C5.98726 7.94239 6.39669 7.51283 6.91427 7.5H10.9992Z" fill="black"/>
<path opacity="0.1" d="M11.9993 4.91499V6.48999C11.9143 6.49499 11.8343 6.49999 11.7493 6.49999C11.6643 6.49999 11.5843 6.495 11.4993 6.48999C11.3306 6.47879 11.1632 6.45201 10.9993 6.40999C9.98684 6.17022 9.15036 5.46013 8.74936 4.5C8.68036 4.33876 8.62679 4.17134 8.58936 4H11.0843C11.5889 4.00191 11.9974 4.41044 11.9993 4.91499Z" fill="black"/>
<path opacity="0.2" d="M11.499 5.41475V6.48975C11.3302 6.47855 11.1628 6.45177 10.999 6.40975C9.98651 6.16998 9.15003 5.45989 8.74902 4.49976H10.584C11.0885 4.50167 11.4971 4.91021 11.499 5.41475Z" fill="black"/>
<path opacity="0.2" d="M11.499 5.41475V6.48975C11.3302 6.47855 11.1628 6.45177 10.999 6.40975C9.98651 6.16998 9.15003 5.45989 8.74902 4.49976H10.584C11.0885 4.50167 11.4971 4.91021 11.499 5.41475Z" fill="black"/>
<path opacity="0.2" d="M10.999 5.41476V6.40975C9.98651 6.16998 9.15003 5.45989 8.74902 4.49976H10.084C10.5886 4.50168 10.9971 4.91022 10.999 5.41476Z" fill="black"/>
<path d="M0.915512 4.49976H10.0824C10.5886 4.49976 10.9989 4.91009 10.9989 5.41625V14.5833C10.9989 15.0894 10.5886 15.4997 10.0824 15.4997H0.915512C0.409345 15.4997 -0.000976562 15.0894 -0.000976562 14.5833V5.41625C-0.000976562 4.91009 0.409355 4.49976 0.915512 4.49976Z" fill="url(#paint0_linear_0_615)"/>
<path d="M7.91185 7.98899H6.07936V12.979H4.91188V7.98899H3.08789V7.021H7.91185V7.98899Z" fill="white"/>
</g>
<defs>
<linearGradient id="paint0_linear_0_615" x1="1.90993" y1="3.78362" x2="9.08812" y2="16.2158" gradientUnits="userSpaceOnUse">
<stop stop-color="#5A62C3"/>
<stop offset="0.5" stop-color="#4D55BD"/>
<stop offset="1" stop-color="#3940AB"/>
</linearGradient>
<clipPath id="clip0_0_615">
<rect width="21.4998" height="20" fill="white"/>
</clipPath>
</defs>
</svg>
