<svg width="52" height="52" viewBox="0 0 52 52" fill="none" xmlns="http://www.w3.org/2000/svg">
<g filter="url(#filter0_di_0_830)">
<path d="M2 9C2 4.58172 5.58172 1 10 1H42C46.4183 1 50 4.58172 50 9V41C50 45.4183 46.4183 49 42 49H10C5.58172 49 2 45.4183 2 41V9Z" fill="#1F8844"/>
<path d="M10 0.5C5.30558 0.5 1.5 4.30558 1.5 9V41C1.5 45.6944 5.30558 49.5 10 49.5H42C46.6944 49.5 50.5 45.6944 50.5 41V9C50.5 4.30558 46.6944 0.5 42 0.5H10Z" stroke="#1A763A"/>
</g>
<path d="M26 13C19.383 13 14 18.383 14 25C14 31.617 19.383 37 26 37C26.1067 37 26.2111 36.9883 26.3173 36.9835C26.3457 36.9822 26.3741 36.9847 26.402 36.99C26.435 36.996 26.467 37 26.5 37C26.546 37 26.593 36.994 26.637 36.981C26.6742 36.9704 26.7128 36.9639 26.7514 36.9615C33.018 36.5697 38 31.3632 38 25C38 18.383 32.617 13 26 13ZM33.4834 33.0457C33.3205 33.1972 33.0361 33.0959 32.825 33.026L30.193 32.15C29.4306 31.8323 29.0061 30.7657 28.8265 30.0746C28.7672 29.8463 28.8525 29.6116 29.0128 29.4387C29.5828 28.8245 30.056 28.017 30.056 27.278C30.056 27.1811 30.3932 26.7136 30.4397 26.6286C30.4491 26.6114 30.4576 26.5935 30.465 26.575C30.514 26.452 30.945 25.353 30.945 24.612C30.945 24.571 30.94 24.53 30.93 24.491C30.8949 24.351 30.8336 24.2105 30.7482 24.0861C30.6205 23.9003 30.5 23.6953 30.5 23.4699V21.501C30.5 20.2912 30.1904 19.6722 29.816 19.2984C29.6853 19.1679 29.5887 19.0056 29.5309 18.8302C29.2845 18.0832 28.4036 17.001 26 17.001C23.212 17.001 21.5 19.622 21.5 21.501V23.4699C21.5 23.6953 21.3795 23.9003 21.2518 24.0861C21.1664 24.2105 21.1051 24.351 21.07 24.491C21.06 24.531 21.055 24.572 21.055 24.612C21.055 25.353 21.486 26.452 21.535 26.575C21.5812 26.6898 21.6388 26.7726 21.7341 26.8224C21.7944 26.8538 21.861 26.8785 21.8885 26.9406C21.9173 27.0059 21.944 27.1132 21.944 27.278C21.944 28.0172 22.4175 28.8249 22.9876 29.4392C23.1477 29.6118 23.233 29.8461 23.1744 30.0741C22.9969 30.7642 22.5793 31.8284 21.841 32.137L19.174 33.026C18.9624 33.0965 18.6749 33.1945 18.5116 33.0425C16.3538 31.0334 14.998 28.174 14.998 25C14.998 18.935 19.933 14 25.998 14C32.063 14 36.998 18.935 36.998 25C36.9999 28.1751 35.6432 31.0365 33.4834 33.0457Z" fill="white"/>
<defs>
<filter id="filter0_di_0_830" x="0" y="0" width="52" height="52" filterUnits="userSpaceOnUse" color-interpolation-filters="sRGB">
<feFlood flood-opacity="0" result="BackgroundImageFix"/>
<feColorMatrix in="SourceAlpha" type="matrix" values="0 0 0 0 0 0 0 0 0 0 0 0 0 0 0 0 0 0 127 0" result="hardAlpha"/>
<feOffset dy="1"/>
<feGaussianBlur stdDeviation="0.5"/>
<feComposite in2="hardAlpha" operator="out"/>
<feColorMatrix type="matrix" values="0 0 0 0 0 0 0 0 0 0 0 0 0 0 0 0 0 0 0.16 0"/>
<feBlend mode="normal" in2="BackgroundImageFix" result="effect1_dropShadow_0_830"/>
<feBlend mode="normal" in="SourceGraphic" in2="effect1_dropShadow_0_830" result="shape"/>
<feColorMatrix in="SourceAlpha" type="matrix" values="0 0 0 0 0 0 0 0 0 0 0 0 0 0 0 0 0 0 127 0" result="hardAlpha"/>
<feOffset dy="1"/>
<feGaussianBlur stdDeviation="1"/>
<feComposite in2="hardAlpha" operator="arithmetic" k2="-1" k3="1"/>
<feColorMatrix type="matrix" values="0 0 0 0 1 0 0 0 0 1 0 0 0 0 1 0 0 0 0.8 0"/>
<feBlend mode="normal" in2="shape" result="effect2_innerShadow_0_830"/>
</filter>
</defs>
</svg>
